<?xml version="1.0" standalone="no"?>
<!DOCTYPE svg PUBLIC "-//W3C//DTD SVG 20010904//EN"
 "http://www.w3.org/TR/2001/REC-SVG-20010904/DTD/svg10.dtd">
<svg version="1.0" xmlns="http://www.w3.org/2000/svg"
 width="400.000000pt" height="400.000000pt" viewBox="0 0 400.000000 400.000000"
 preserveAspectRatio="xMidYMid meet">
<metadata>
Created by potrace 1.11, written by Peter Selinger 2001-2013
</metadata>
<g transform="translate(0.000000,400.000000) scale(0.100000,-0.100000)"
fill="#000000" stroke="none">
<path d="M1810 3960 c-30 -5 -75 -11 -100 -14 -176 -21 -394 -91 -595 -191
-82 -41 -161 -83 -175 -94 -14 -10 -70 -52 -125 -92 -176 -129 -393 -367 -498
-547 -108 -186 -211 -442 -242 -607 -35 -183 -40 -235 -40 -415 0 -334 54
-571 195 -865 98 -202 205 -355 368 -524 39 -41 72 -83 72 -93 0 -11 7 -18 20
-18 11 0 64 -33 117 -73 128 -96 224 -155 358 -218 110 -52 316 -125 383 -135
21 -3 40 -8 43 -9 8 -6 126 -25 194 -32 84 -9 355 -10 443 0 126 12 342 63
443 103 28 12 43 13 52 6 10 -8 21 -4 42 14 17 15 66 44 110 66 336 170 596
405 808 730 54 84 149 287 191 409 40 116 82 304 93 419 10 94 10 331 1 431
-39 415 -249 856 -560 1173 -49 49 -88 93 -88 98 0 4 -6 8 -13 8 -6 0 -39 22
-72 49 -105 85 -226 161 -360 227 -196 96 -353 143 -625 189 -59 10 -382 13
-440 5z"/>
</g>
</svg>
