<?xml version="1.0" standalone="no"?>
<!DOCTYPE svg PUBLIC "-//W3C//DTD SVG 20010904//EN"
 "http://www.w3.org/TR/2001/REC-SVG-20010904/DTD/svg10.dtd">
<svg version="1.0" xmlns="http://www.w3.org/2000/svg"
 width="400.000000pt" height="400.000000pt" viewBox="0 0 400.000000 400.000000"
 preserveAspectRatio="xMidYMid meet">
<metadata>
Created by potrace 1.11, written by Peter Selinger 2001-2013
</metadata>
<g transform="translate(0.000000,400.000000) scale(0.100000,-0.100000)"
fill="#000000" stroke="none">
<path d="M1878 3835 c-2 -1 -34 -5 -73 -8 -61 -6 -161 -22 -259 -42 -33 -7
-200 -61 -231 -75 -209 -94 -297 -145 -440 -254 -297 -225 -526 -551 -636
-906 -33 -105 -56 -204 -65 -283 -4 -29 -9 -56 -12 -61 -9 -16 -10 -351 -2
-398 5 -24 11 -68 14 -98 18 -160 81 -360 173 -545 181 -365 466 -647 840
-834 115 -57 287 -121 368 -137 22 -5 42 -9 45 -9 3 -1 16 -4 30 -8 25 -6 70
-13 190 -27 157 -18 411 -1 631 45 100 20 356 124 451 182 21 13 40 23 43 23
9 0 170 114 225 159 250 207 441 472 558 771 33 86 88 290 97 365 3 28 9 64
12 80 9 43 9 361 0 420 -4 28 -9 64 -11 80 -15 103 -57 270 -86 340 -4 11 -14
36 -21 55 -14 39 -94 204 -128 265 -161 284 -490 583 -797 726 -47 21 -88 39
-91 39 -3 0 -19 7 -36 14 -34 16 -165 58 -232 75 -39 10 -122 24 -215 36 -46
7 -336 15 -342 10z"/>
</g>
</svg>
